<svg width="43" height="31" viewBox="0 0 43 31" fill="none" xmlns="http://www.w3.org/2000/svg">
<path d="M42.125 28.625C42.125 29.1223 41.9275 29.5992 41.5758 29.9508C41.2242 30.3025 40.7473 30.5 40.25 30.5H17.75C17.2527 30.5 16.7758 30.3025 16.4242 29.9508C16.0725 29.5992 15.875 29.1223 15.875 28.625C15.875 25.6413 17.0603 22.7798 19.17 20.67C21.2798 18.5603 24.1413 17.375 27.125 17.375H30.875C33.8587 17.375 36.7202 18.5603 38.83 20.67C40.9397 22.7798 42.125 25.6413 42.125 28.625ZM29 0.5C27.5166 0.5 26.0666 0.939867 24.8332 1.76398C23.5999 2.58809 22.6386 3.75943 22.0709 5.12987C21.5032 6.50032 21.3547 8.00832 21.6441 9.46318C21.9335 10.918 22.6478 12.2544 23.6967 13.3033C24.7456 14.3522 26.082 15.0665 27.5368 15.3559C28.9917 15.6453 30.4997 15.4968 31.8701 14.9291C33.2406 14.3614 34.4119 13.4001 35.236 12.1668C36.0601 10.9334 36.5 9.48336 36.5 8C36.5 6.01088 35.7098 4.10322 34.3033 2.6967C32.8968 1.29018 30.9891 0.5 29 0.5ZM12.125 0.5C10.6416 0.5 9.19159 0.939867 7.95822 1.76398C6.72485 2.58809 5.76356 3.75943 5.1959 5.12987C4.62825 6.50032 4.47972 8.00832 4.76911 9.46318C5.0585 10.918 5.7728 12.2544 6.8217 13.3033C7.87059 14.3522 9.20697 15.0665 10.6618 15.3559C12.1167 15.6453 13.6247 15.4968 14.9951 14.9291C16.3656 14.3614 17.5369 13.4001 18.361 12.1668C19.1851 10.9334 19.625 9.48336 19.625 8C19.625 6.01088 18.8348 4.10322 17.4283 2.6967C16.0218 1.29018 14.1141 0.5 12.125 0.5ZM12.125 28.625C12.1222 26.6555 12.5102 24.7051 13.2666 22.8866C14.0229 21.0681 15.1326 19.4178 16.5313 18.0313C15.3866 17.5991 14.1735 17.3768 12.95 17.375H11.3C8.53664 17.38 5.88788 18.4799 3.93389 20.4339C1.97989 22.3879 0.879957 25.0366 0.875 27.8V28.625C0.875 29.1223 1.07254 29.5992 1.42417 29.9508C1.77581 30.3025 2.25272 30.5 2.75 30.5H12.4625C12.2442 29.8987 12.1301 29.2646 12.125 28.625Z" fill="white"/>
</svg>
