<svg width="45" height="45" viewBox="0 0 45 45" fill="none" xmlns="http://www.w3.org/2000/svg">
<path d="M36.5644 4.29188H8.43557C3.77675 4.29188 0 8.06854 0 12.7274V26.1033C0 30.7622 3.77675 34.5388 8.43548 34.5388H14.5591C15.6676 34.5388 17.3616 33.6325 18 34.5388H20.5C22.5 34.5388 22 34.5388 23.5 34.5388H26.5C28 34.5388 28.1868 34.5388 29.2954 34.5388H36.5643C41.2232 34.5388 44.9998 30.7621 44.9998 26.1033V12.7274C45 8.06854 41.2233 4.29188 36.5644 4.29188Z" fill="white"/>
<path d="M13.7484 16.1446C13.7484 11.7693 15.0465 7.6979 17.2768 4.29188H8.43548C3.77675 4.29188 0 8.06854 0 12.7274V26.1033C0 30.7622 3.77675 34.5389 8.43548 34.5389H14.5592C15.6677 34.5389 18 34.5389 19.5 34.5389H31.5C32.4629 35.9058 39.5371 41.0498 40.5 39.683L39 38C37.5 35 36.9443 33.4809 39 34.5389C31.451 31.1522 13.7484 24.9543 13.7484 16.1446Z" fill="white"/>
<path d="M16.2954 19.2394C12.5211 19.2394 9.46143 22.5207 9.46143 26.5683C9.46143 28.2585 10.8316 29.6287 12.5219 29.6287H20.0689C21.7591 29.6287 23.1293 28.2585 23.1293 26.5683C23.1293 22.5207 20.0696 19.2394 16.2954 19.2394Z" fill="#3C5257" fill-opacity="0.87"/>
<path d="M16.2954 21.1357C19.2463 21.1357 21.6384 18.7435 21.6384 15.7926C21.6384 12.8417 19.2463 10.4496 16.2954 10.4496C13.3445 10.4496 10.9523 12.8417 10.9523 15.7926C10.9523 18.7435 13.3445 21.1357 16.2954 21.1357Z" fill="#3B5156"/>
<line x1="30" y1="17.5" x2="30" y2="22.5" stroke="#3B5156" stroke-linecap="round"/>
<line x1="27.5" y1="20" x2="32.5" y2="20" stroke="#3B5156" stroke-linecap="round"/>
</svg>
