<svg width="35" height="32" viewBox="0 0 35 32" fill="none" xmlns="http://www.w3.org/2000/svg">
<path fill-rule="evenodd" clip-rule="evenodd" d="M34.375 12.5C34.375 8.29961 34.375 6.19942 33.5576 4.59508C32.8385 3.18386 31.6911 2.03651 30.2799 1.31744C28.6756 0.5 26.5754 0.5 22.375 0.5H12.625C8.42462 0.5 6.32444 0.5 4.72 1.31744C3.30887 2.03651 2.16156 3.18386 1.4425 4.59508C0.625 6.19942 0.625 8.29961 0.625 12.5V14.75C0.625 18.9504 0.625 21.0506 1.4425 22.655C2.16156 24.0661 3.30887 25.2134 4.72 25.9325C6.32444 26.75 8.42462 26.75 12.625 26.75H26.0984C26.5956 26.75 27.0726 26.9476 27.4242 27.2992L31.1742 31.0492C32.3554 32.2304 34.375 31.3938 34.375 29.7234V26.75V17.375V12.5ZM23.125 8C24.1605 8 25 8.83947 25 9.875C25 10.9105 24.1605 11.75 23.125 11.75H11.875C10.8394 11.75 10 10.9105 10 9.875C10 8.83947 10.8394 8 11.875 8H23.125ZM23.125 15.5C24.1605 15.5 25 16.3394 25 17.375C25 18.4106 24.1605 19.25 23.125 19.25H17.5C16.4644 19.25 15.625 18.4106 15.625 17.375C15.625 16.3394 16.4644 15.5 17.5 15.5H23.125Z" fill="white"/>
</svg>
